<?xml version="1.0" encoding="UTF-8"?>
<!-- Created with Inkscape (http://www.inkscape.org/) -->
<svg width="205" height="135" version="1.1" viewBox="0 0 205 135" xmlns="http://www.w3.org/2000/svg">
 <defs>
  <clipPath id="clipPath20635">
   <path class="powerclip" d="m126.6 92.539h193.05v116.95h-193.05zm198.58-9.9637-19.715 0.17578-28.66 139.56h48.375z" display="block" fill="none" stroke="#000" stroke-width="1px"/>
  </clipPath>
 </defs>
 <g display="none">
  <g transform="translate(-144.47 72.669)">
   <g transform="matrix(.5699 0 0 .51192 40.698 -7.8367)" stroke-width="1.8514">
    <rect x="268.1" y="205.84" width="104.02" height="66.707" rx="14.558" ry="16.207" fill="#ffd42a" stop-color="#000000"/>
    <rect x="376.69" y="205.84" width="104.02" height="66.707" rx="14.558" ry="16.207" fill="#ffe680" stop-color="#000000"/>
    <rect x="159.51" y="205.84" width="104.02" height="66.707" rx="14.558" ry="16.207" fill="#d4aa00" stop-color="#000000"/>
   </g>
   <rect x="193.49" y="133.94" width="59.278" height="34.149" rx="8.2968" ry="8.2968" fill="#2a7fff" stop-color="#000000"/>
   <rect x="255.37" y="133.94" width="59.278" height="34.149" rx="8.2968" ry="8.2968" fill="#aaf" stop-color="#000000"/>
   <rect x="131.6" y="133.94" width="59.278" height="34.149" rx="8.2968" ry="8.2968" fill="#7137c8" stop-color="#000000"/>
   <rect x="193.49" y="170.34" width="59.278" height="34.149" rx="8.2968" ry="8.2968" fill="#5fd35f" stop-color="#000000"/>
   <rect x="255.37" y="170.34" width="59.278" height="34.149" rx="8.2968" ry="8.2968" fill="#afe9af" stop-color="#000000"/>
   <rect x="131.6" y="170.34" width="59.278" height="34.149" rx="8.2968" ry="8.2968" fill="#0a0" stop-color="#000000"/>
  </g>
  <text transform="scale(.98707 1.0131)" x="171.87105" y="218.98872" font-family="sans-serif" font-size="38.118px" style="line-height:1.25" xml:space="preserve"><tspan x="171.87105" y="218.98872" font-family="Keraleeyam" font-size="81.317px" style="font-variant-caps:normal;font-variant-east-asian:normal;font-variant-ligatures:normal;font-variant-numeric:normal">T</tspan></text>
  <text transform="scale(-1)" x="-209.93861" y="-226.83208" font-family="sans-serif" font-size="37.625px" style="line-height:1.25" xml:space="preserve"><tspan x="-209.93861" y="-226.83208" font-family="Keraleeyam" font-size="80.266px" style="font-variant-caps:normal;font-variant-east-asian:normal;font-variant-ligatures:normal;font-variant-numeric:normal">T</tspan></text>
  <g transform="translate(118.85 71.386)" clip-path="url(#clipPath20635)">
   <g transform="matrix(.5699 0 0 .51192 40.698 -7.8367)" stroke-width="1.8514">
    <path d="m282.66 205.84h74.898c8.0653 0 14.558 7.2284 14.558 16.207v34.292c0 8.9788-6.493 16.207-14.558 16.207h-74.898c-8.0653 0-14.558-7.2284-14.558-16.207v-34.292c0-8.9788 6.493-16.207 14.558-16.207z" fill="#ff7f2a" stop-color="#000000"/>
    <path d="m391.25 205.84h74.898c8.0653 0 14.558 7.2284 14.558 16.207v34.292c0 8.9788-6.493 16.207-14.558 16.207h-74.898c-8.0653 0-14.558-7.2284-14.558-16.207v-34.292c0-8.9788 6.493-16.207 14.558-16.207z" fill="#fd5" stop-color="#000000"/>
    <path d="m174.07 205.84h74.898c8.0653 0 14.558 7.2284 14.558 16.207v34.292c0 8.9788-6.493 16.207-14.558 16.207h-74.898c-8.0653 0-14.558-7.2284-14.558-16.207v-34.292c0-8.9788 6.493-16.207 14.558-16.207z" fill="#f55" stop-color="#000000"/>
   </g>
   <path d="m201.78 133.94h42.685c4.5964 0 8.2968 3.7004 8.2968 8.2968v17.555c0 4.5964-3.7004 8.2968-8.2968 8.2968h-42.685c-4.5964 0-8.2968-3.7004-8.2968-8.2968v-17.555c0-4.5964 3.7004-8.2968 8.2968-8.2968z" fill="#2a7fff" stop-color="#000000"/>
   <path d="m263.67 133.94h42.685c4.5964 0 8.2968 3.7004 8.2968 8.2968v17.555c0 4.5964-3.7004 8.2968-8.2968 8.2968h-42.685c-4.5964 0-8.2968-3.7004-8.2968-8.2968v-17.555c0-4.5964 3.7004-8.2968 8.2968-8.2968z" fill="#aaf" stop-color="#000000"/>
   <path d="m139.9 133.94h42.685c4.5964 0 8.2968 3.7004 8.2968 8.2968v17.555c0 4.5964-3.7004 8.2968-8.2968 8.2968h-42.685c-4.5964 0-8.2968-3.7004-8.2968-8.2968v-17.555c0-4.5964 3.7004-8.2968 8.2968-8.2968z" fill="#7137c8" stop-color="#000000"/>
   <path d="m201.78 170.34h42.685c4.5964 0 8.2968 3.7004 8.2968 8.2968v17.555c0 4.5964-3.7004 8.2968-8.2968 8.2968h-42.685c-4.5964 0-8.2968-3.7004-8.2968-8.2968v-17.555c0-4.5964 3.7004-8.2968 8.2968-8.2968z" fill="#5fd35f" stop-color="#000000"/>
   <path d="m263.67 170.34h42.685c4.5964 0 8.2968 3.7004 8.2968 8.2968v17.555c0 4.5964-3.7004 8.2968-8.2968 8.2968h-42.685c-4.5964 0-8.2968-3.7004-8.2968-8.2968v-17.555c0-4.5964 3.7004-8.2968 8.2968-8.2968z" fill="#afe9af" stop-color="#000000"/>
   <path d="m139.9 170.34h42.685c4.5964 0 8.2968 3.7004 8.2968 8.2968v17.555c0 4.5964-3.7004 8.2968-8.2968 8.2968h-42.685c-4.5964 0-8.2968-3.7004-8.2968-8.2968v-17.555c0-4.5964 3.7004-8.2968 8.2968-8.2968z" fill="#0a0" stop-color="#000000"/>
  </g>
  <text transform="rotate(-78.356)" x="-189.33038" y="462.72189" fill="#ffffff" font-family="Dhurjati" font-size="26.084px" style="font-variant-caps:normal;font-variant-east-asian:normal;font-variant-ligatures:normal;font-variant-numeric:normal;line-height:1.25" xml:space="preserve"><tspan x="-189.33038" y="462.72189" fill="#ffffff">TABLETIMES</tspan></text>
 </g>
 <g>
  <rect y="70" width="100" height="65" rx="7.0002" ry="7.1124" fill="#f00" stop-color="#000000"/>
  <rect x="105" y="70" width="100" height="65" rx="7.0002" ry="7.1124" fill="#4a0" stop-color="#000000"/>
  <rect width="100" height="65" rx="7.0002" ry="7.1124" fill="#80a" stop-color="#000000"/>
  <rect x="105" width="100" height="65" rx="7.0002" ry="7.1124" fill="#fc0" stop-color="#000000"/>
  <text x="12.985155" y="58.556328" fill="#ffffff" font-family="Keraleeyam" font-size="45.432px" style="font-variant-caps:normal;font-variant-east-asian:normal;font-variant-ligatures:normal;font-variant-numeric:normal;line-height:1.25" xml:space="preserve"><tspan x="12.985155" y="58.556328">Table</tspan></text>
  <text x="109.75771" y="104.48386" fill="#ffffff" font-family="Keraleeyam" font-size="45.432px" style="font-variant-caps:normal;font-variant-east-asian:normal;font-variant-ligatures:normal;font-variant-numeric:normal;line-height:1.25" xml:space="preserve"><tspan x="109.75771" y="104.48386">times</tspan></text>
 </g>
 <g display="none">
  <path d="m6.4687 68.869c-3.5845 0-6.4687 2.8843-6.4687 6.4687v46.192c0 3.5844 2.8842 6.4687 6.4687 6.4687h46.192c3.5845 0 6.4687-2.8843 6.4687-6.4687v-46.192c0-3.5845-2.8843-6.4687-6.4687-6.4687z" fill="#f00" stop-color="#000000"/>
  <rect x="68.869" y="68.869" width="59.131" height="59.131" rx="6.4701" ry="6.4701" fill="#4a0" stop-color="#000000"/>
  <rect x=".00096383" width="59.131" height="59.131" rx="6.4701" ry="6.4701" fill="#80a" stop-color="#000000"/>
  <rect x="68.869" width="59.131" height="59.131" rx="6.4701" ry="6.4701" fill="#fc0" stop-color="#000000"/>
 </g>
</svg>
